# xmcd
#
# Track frame offsets:
#	150
#	18477
#	32426
#	41115
#	58460
#	73593
#	84908
#	99752
#	114049
#	132839
#	142319
#	150528
#	176650
#	197147
#	213941
#
# Disc length: 3145 seconds
#
# Revision: 0
# Processed by: cddbd v1.5.1PL0 Copyright (c) Steve Scherf et al.
# Submitted via: dBpowerAMP V4.0
#
DISCID=cb0c470f
DTITLE=D.C. Malone - Schizzo
DYEAR=1900
DGENRE=Blues
TTITLE0=Down Drinking at the Bar
TTITLE1=Lumberjack Mama
TTITLE2=Rufus  is a Tit Man
TTITLE3=Angel From Montgomery
TTITLE4=Gimme That Wine
TTITLE5=Oozlin Daddy Blues
TTITLE6=San Franciscan Nights
TTITLE7=Complicated Man
TTITLE8=One For My Baby (One More For The Road)
TTITLE9=She's A Hot Lesbo
TTITLE10=Bye Bye Crablouse
TTITLE11=Geronimo's Cadillac
TTITLE12=Drive You (Live in Detroit)
TTITLE13=Sixteen Tons (Live in Detroit)
TTITLE14=Cocaine (Live in Detroit)
EXTD=D.C. Malone is a comedian/blues guitarist. He is very excellent.
EXTT0=
EXTT1=
EXTT2=
EXTT3=
EXTT4=
EXTT5=
EXTT6=
EXTT7=
EXTT8=
EXTT9=
EXTT10=
EXTT11=
EXTT12=
EXTT13=
EXTT14=
PLAYORDER=
